<svg width="347" height="247" viewBox="0 0 347 247" fill="none" xmlns="http://www.w3.org/2000/svg">
<path d="M343.844 5C341.375 1.29688 337.672 0.0625 333.969 0.0625H13.0312C9.32812 0.0625 5.625 1.29688 3.15625 5C0.687501 8.70313 0.6875 12.4063 0.6875 16.1094L30.3125 118.563C38.9531 148.188 55 171.641 74.75 185.219C59.9375 196.328 50.0625 213.609 50.0625 234.594C50.0625 242 55 246.938 62.4062 246.938H284.594C292 246.938 296.938 242 296.938 234.594C296.938 214.844 287.063 196.328 272.25 185.219C292 171.641 308.047 148.188 316.688 117.328L346.312 16.1094C346.312 12.4063 346.312 7.46875 343.844 5ZM77.2187 222.25C82.1562 207.437 95.7344 197.562 111.781 197.562H235.219C251.266 197.562 264.844 207.437 269.781 222.25H77.2187ZM293.234 111.156C282.125 148.188 259.906 172.875 235.219 172.875H111.781C87.0938 172.875 64.875 148.188 53.7656 111.156L29.0781 24.75H316.688L293.234 111.156Z" fill="#25282C"/>
</svg>
