<svg width="504" height="442" viewBox="0 0 504 442" fill="none" xmlns="http://www.w3.org/2000/svg">
<path d="M55.3875 346.775H448.603C464.147 346.775 476.691 334.194 476.691 318.688V37.8125C476.691 17.1313 459.937 0.368774 439.266 0.368774H64.7438C44.0625 0.368774 27.3094 17.1313 27.3094 37.8125V318.688C27.3094 334.194 39.8906 346.775 55.3875 346.775ZM74.1844 47.2438H429.816V299.9H74.1844V47.2438Z" fill="#25282C"/>
<path d="M494.381 363.988H9.62811C4.44374 363.988 0.253113 368.178 0.253113 373.363C0.253113 382.484 0.253113 396.613 0.253113 408.059C0.253113 426.613 19.0875 441.622 42.3094 441.622H461.691C484.912 441.622 503.747 426.603 503.747 408.059V373.363C503.756 368.178 499.556 363.988 494.381 363.988ZM310.481 412.184H193.509C188.334 412.184 184.134 407.994 184.134 402.809C184.134 397.625 188.334 393.434 193.509 393.434H310.481C315.666 393.434 319.856 397.625 319.856 402.809C319.856 407.994 315.666 412.184 310.481 412.184Z" fill="#25282C"/>
</svg>
